<svg width="95" height="95" fill="none" xmlns="http://www.w3.org/2000/svg"><path d="M0 20C0 8.954 8.954 0 20 0h55c11.046 0 20 8.954 20 20v55c0 11.046-8.954 20-20 20H20C8.954 95 0 86.046 0 75V20z" fill="#C4F5C9"/><path d="M56 49V34.857c0-1.819-.843-3.563-2.343-4.849C52.157 28.723 50.122 28 48 28s-4.157.723-5.657 2.008c-1.5 1.286-2.343 3.03-2.343 4.85V49" stroke="#5EBA67" stroke-width="2.5" stroke-linecap="round" stroke-linejoin="round"/><path d="M58.5 44h-21c-2.485 0-4.5 1.738-4.5 3.882v14.236C33 64.262 35.015 66 37.5 66h21c2.485 0 4.5-1.738 4.5-3.882V47.882C63 45.738 60.985 44 58.5 44z" stroke="#5EBA67" stroke-width="2.5" stroke-linecap="round" stroke-linejoin="round"/></svg>