<svg width="87" height="87" viewBox="0 0 87 87" fill="none" xmlns="http://www.w3.org/2000/svg">
<path d="M0 43.5C0 19.4756 19.4756 0 43.5 0C67.5244 0 87 19.4756 87 43.5C87 67.5244 67.5244 87 43.5 87C19.4756 87 0 67.5244 0 43.5Z" fill="#1B2534"/>
<path d="M38.2501 56.3995L51.631 44.9331C51.8466 44.7483 52.0196 44.519 52.1383 44.2611C52.2569 44.0031 52.3183 43.7225 52.3183 43.4385C52.3183 43.1546 52.2569 42.874 52.1383 42.616C52.0196 42.358 51.8466 42.1287 51.631 41.9439L38.2501 30.4776C36.9729 29.3833 35 30.2906 35 31.9722V54.9081C35 56.5898 36.9729 57.497 38.2501 56.3995Z" fill="white"/>
</svg>
