<svg width="253" height="51" fill="none" xmlns="http://www.w3.org/2000/svg"><path d="M22.647 8.781c.898-2.764 4.808-2.764 5.706 0l2.199 6.766a3 3 0 002.853 2.073h7.114c2.906 0 4.114 3.719 1.763 5.427l-5.755 4.181a3 3 0 00-1.09 3.355l2.198 6.766c.898 2.764-2.265 5.062-4.616 3.354l-5.756-4.182a3 3 0 00-3.526 0l-5.756 4.182c-2.351 1.708-5.514-.59-4.616-3.354l2.198-6.766a3 3 0 00-1.09-3.354l-5.755-4.182c-2.351-1.708-1.143-5.427 1.763-5.427h7.114a3 3 0 002.853-2.073l2.199-6.766zm101 0c.898-2.764 4.808-2.764 5.706 0l2.199 6.766a2.999 2.999 0 002.853 2.073h7.114c2.906 0 4.114 3.719 1.763 5.427l-5.755 4.181a2.999 2.999 0 00-1.09 3.355l2.198 6.766c.898 2.764-2.265 5.062-4.616 3.354l-5.756-4.182a2.999 2.999 0 00-3.526 0l-5.756 4.182c-2.351 1.708-5.514-.59-4.616-3.354l2.198-6.766a2.999 2.999 0 00-1.09-3.354l-5.755-4.182c-2.351-1.708-1.143-5.427 1.763-5.427h7.114c1.3 0 2.452-.837 2.853-2.073l2.199-6.766z" fill="#FFC226"/><path d="M225.122 8.935c.749-2.303 4.007-2.303 4.756 0l2.198 6.766a3.5 3.5 0 003.329 2.419h7.114c2.422 0 3.429 3.099 1.469 4.522l-5.755 4.182a3.5 3.5 0 00-1.272 3.913l2.199 6.766c.748 2.303-1.888 4.219-3.847 2.795l-5.756-4.181a3.5 3.5 0 00-4.114 0l-5.756 4.181c-1.959 1.424-4.595-.492-3.847-2.795l2.199-6.766a3.5 3.5 0 00-1.272-3.913l-5.755-4.182c-1.96-1.423-.953-4.522 1.469-4.522h7.114a3.5 3.5 0 003.329-2.419l2.198-6.766z" stroke="#FFC226"/><path d="M73.141 8.973c.888-2.786 4.83-2.786 5.718 0l2.088 6.557a3 3 0 002.859 2.09h6.884c2.891 0 4.11 3.688 1.786 5.41l-5.67 4.203a3 3 0 00-1.073 3.32l2.142 6.724c.883 2.774-2.306 5.054-4.645 3.32l-5.444-4.033a3 3 0 00-3.572 0l-5.444 4.034c-2.34 1.733-5.528-.547-4.645-3.321l2.142-6.724a3 3 0 00-1.072-3.32l-5.67-4.203c-2.324-1.722-1.106-5.41 1.785-5.41h6.884a3 3 0 002.859-2.09l2.088-6.557zm101.001 0c.887-2.786 4.829-2.786 5.716 0l2.089 6.557a3.001 3.001 0 002.859 2.09h6.884c2.891 0 4.109 3.688 1.786 5.41l-5.671 4.203a2.998 2.998 0 00-1.072 3.32l2.142 6.724c.883 2.774-2.306 5.054-4.645 3.32l-5.444-4.033a3 3 0 00-3.572 0l-5.444 4.034c-2.339 1.733-5.528-.547-4.645-3.321l2.142-6.724a2.998 2.998 0 00-1.072-3.32l-5.671-4.203c-2.323-1.722-1.105-5.41 1.786-5.41h6.884a3.001 3.001 0 002.859-2.09l2.089-6.557z" fill="#FFC226"/><mask id="a" style="mask-type:alpha" maskUnits="userSpaceOnUse" x="209" y="6" width="37" height="36"><path d="M224.647 8.781c.898-2.764 4.808-2.764 5.706 0l2.199 6.766a2.999 2.999 0 002.853 2.073h7.114c2.906 0 4.114 3.719 1.763 5.427l-5.755 4.181a2.999 2.999 0 00-1.09 3.355l2.198 6.766c.898 2.764-2.265 5.062-4.616 3.354l-5.756-4.182a2.999 2.999 0 00-3.526 0l-5.756 4.182c-2.351 1.708-5.514-.59-4.616-3.354l2.198-6.766a2.999 2.999 0 00-1.09-3.354l-5.755-4.182c-2.351-1.708-1.143-5.427 1.763-5.427h7.114c1.3 0 2.452-.837 2.853-2.073l2.199-6.766z" fill="#FFC226"/></mask><g mask="url(#a)"><path d="M227 1h-20v46h20V1z" fill="#FFC226"/></g></svg>