<svg width="95" height="95" fill="none" xmlns="http://www.w3.org/2000/svg"><path d="M0 20C0 8.954 8.954 0 20 0h55c11.046 0 20 8.954 20 20v55c0 11.046-8.954 20-20 20H20C8.954 95 0 86.046 0 75V20z" fill="#FED8FF"/><path d="M58.903 27H35.155a4 4 0 00-3.566 2.188l-4.492 8.84a4 4 0 00.307 4.132l16.6 23.32c1.583 2.225 4.879 2.245 6.489.04l16.95-23.203a4 4 0 00.212-4.4l-5.311-8.957a4 4 0 00-3.44-1.96zM27 40h41" stroke="#E074E3" stroke-width="2"/><path d="M37.085 40.548l8.25 23.791c.629 1.816 3.206 1.786 3.794-.043l7.623-23.748M47.297 27l11.232 1.448a2 2 0 011.626 2.662l-3.403 9.438L47.297 27zm0 0l-11.842 1.464a2 2 0 00-1.645 2.64l3.275 9.444L47.297 27zm0 0L37.085 40.548 47.297 27zm0 0l9.455 13.548L47.297 27z" stroke="#E074E3" stroke-width="2"/></svg>