<svg width="44" height="40" fill="none" xmlns="http://www.w3.org/2000/svg"><path d="M17.303 3.45c1.599-4.381 7.795-4.381 9.394 0l1.962 5.377a5 5 0 004.697 3.286h4.999c4.982 0 6.9 6.492 2.716 9.198l-3.009 1.947a5 5 0 00-1.98 5.912l1.376 3.774c1.644 4.506-3.386 8.517-7.413 5.911l-5.329-3.447a5 5 0 00-5.432 0l-5.329 3.447c-4.027 2.606-9.057-1.405-7.413-5.911l1.377-3.774a5 5 0 00-1.981-5.912L2.929 21.31c-4.183-2.706-2.266-9.198 2.716-9.198h4.999a5 5 0 004.697-3.286l1.962-5.377z" fill="#FFC226"/></svg>