<svg width="150" height="38" fill="none" xmlns="http://www.w3.org/2000/svg"><path d="M17.616 37.5c-.9 0-1.79-.26-2.67-.78-.86-.5-1.96-1.28-3.3-2.34-1-.8-1.86-1.45-2.58-1.95-.7-.48-1.47-.89-2.31-1.23-.82-.34-1.66-.51-2.52-.51-.3 0-.53.01-.69.03l4.47-20.79c-1.34.54-2.38 1.37-3.12 2.49-.72 1.1-1.08 2.45-1.08 4.05 0 .74.07 1.26.21 1.56.14.28.21.44.21.48-1.08 0-1.89-.22-2.43-.66-.52-.46-.78-1.21-.78-2.25 0-1.28.52-2.52 1.56-3.72 1.06-1.22 2.41-2.2 4.05-2.94 1.64-.76 3.28-1.14 4.92-1.14.28 0 .68.02 1.2.06L8.136 29.4c.56.14 1.13.34 1.71.6.6.28 1.32.65 2.16 1.11 1.3.7 2.41 1.23 3.33 1.59.92.38 1.88.57 2.88.57.9 0 1.74-.16 2.52-.48-.16 1.46-.52 2.61-1.08 3.45-.54.84-1.22 1.26-2.04 1.26zm-1.023-7.38c-1.48 0-2.65-.38-3.51-1.14-.86-.76-1.29-1.96-1.29-3.6 0-1.36.28-2.87.84-4.53.56-1.66 1.46-3.09 2.7-4.29 1.24-1.22 2.8-1.83 4.68-1.83 2.56 0 3.84 1.6 3.84 4.8v.03c.06.02.17.03.33.03.66 0 1.42-.17 2.28-.51.86-.36 1.64-.79 2.34-1.29l.27.81c-.58.62-1.34 1.15-2.28 1.59-.92.42-1.93.72-3.03.9-.16 1.82-.57 3.41-1.23 4.77-.66 1.36-1.51 2.41-2.55 3.15-1.04.74-2.17 1.11-3.39 1.11zm1.2-2.7c.48 0 .96-.27 1.44-.81.48-.56.9-1.31 1.26-2.25.36-.96.62-2.02.78-3.18-.54-.12-.81-.54-.81-1.26 0-.82.31-1.36.93-1.62-.04-.66-.14-1.11-.3-1.35-.16-.26-.44-.39-.84-.39-.66 0-1.3.48-1.92 1.44-.62.96-1.12 2.11-1.5 3.45-.38 1.34-.57 2.52-.57 3.54 0 .96.11 1.61.33 1.95.22.32.62.48 1.2.48zM27.437 15h4.32l-.39 1.86c.68-.6 1.29-1.06 1.83-1.38a3.57 3.57 0 011.8-.48c.64 0 1.14.22 1.5.66.38.44.57.97.57 1.59 0 .58-.19 1.09-.57 1.53-.38.44-.91.66-1.59.66-.44 0-.74-.1-.9-.3-.14-.22-.25-.53-.33-.93-.06-.26-.12-.45-.18-.57-.06-.12-.17-.18-.33-.18-.42 0-.78.09-1.08.27-.28.16-.65.45-1.11.87l-2.4 11.4h-4.32l3.18-15zm13.53 15.18c-1.48 0-2.63-.38-3.45-1.14-.82-.78-1.23-1.99-1.23-3.63 0-1.38.27-2.9.81-4.56.54-1.66 1.42-3.09 2.64-4.29 1.22-1.22 2.77-1.83 4.65-1.83 2.2 0 3.3.96 3.3 2.88 0 1.12-.32 2.15-.96 3.09-.64.94-1.49 1.7-2.55 2.28a8.37 8.37 0 01-3.39.96c-.04.6-.06 1-.06 1.2 0 .98.17 1.65.51 2.01.34.34.89.51 1.65.51 1.08 0 2-.25 2.76-.75.78-.5 1.63-1.26 2.55-2.28h1.02c-2.22 3.7-4.97 5.55-8.25 5.55zm.06-7.68c.74-.04 1.44-.3 2.1-.78.68-.48 1.22-1.09 1.62-1.83.42-.74.63-1.52.63-2.34 0-.82-.25-1.23-.75-1.23-.72 0-1.43.63-2.13 1.89-.68 1.26-1.17 2.69-1.47 4.29zm24.893 7.68c-1.06 0-1.83-.32-2.31-.96-.48-.64-.72-1.45-.72-2.43 0-.42.05-.89.15-1.41.1-.54.2-1.06.3-1.56.12-.5.2-.82.24-.96.16-.7.31-1.39.45-2.07.14-.68.21-1.23.21-1.65 0-1.02-.36-1.53-1.08-1.53-.52 0-.98.26-1.38.78-.4.5-.72 1.16-.96 1.98L58.78 30h-4.32l2.19-10.35c.06-.24.09-.49.09-.75 0-.88-.3-1.32-.9-1.32-.56 0-1.05.26-1.47.78-.4.5-.72 1.17-.96 2.01L51.37 30h-4.32l3.18-15h4.32l-.33 1.56c1.02-1.14 2.24-1.71 3.66-1.71 1.76 0 2.79.86 3.09 2.58 1.1-1.7 2.49-2.55 4.17-2.55 1.02 0 1.83.28 2.43.84.6.56.9 1.41.9 2.55 0 .58-.07 1.23-.21 1.95-.14.7-.34 1.56-.6 2.58-.16.62-.31 1.23-.45 1.83-.12.58-.18 1.04-.18 1.38 0 .4.09.71.27.93.18.22.49.33.93.33.48 0 .81-.06.99-.18-.12 1.02-.49 1.79-1.11 2.31-.6.52-1.33.78-2.19.78zM82.899 9.63c-1.34.54-2.38 1.37-3.12 2.49-.72 1.1-1.08 2.45-1.08 4.05 0 .74.07 1.26.21 1.56.14.28.21.44.21.48-1.08 0-1.89-.22-2.43-.66-.52-.46-.78-1.21-.78-2.25 0-1.28.52-2.52 1.56-3.72 1.06-1.22 2.41-2.2 4.05-2.94 1.64-.76 3.28-1.14 4.92-1.14.28 0 .68.02 1.2.06L82.869 30h-4.32l4.35-20.37zm6.36 4.26h4.32l-.48 2.25c1-.86 2.17-1.29 3.51-1.29 1.12 0 2.01.37 2.67 1.11.66.74.99 1.95.99 3.63 0 1.58-.23 3.18-.69 4.8-.46 1.6-1.24 2.97-2.34 4.11-1.1 1.12-2.55 1.68-4.35 1.68-1.28 0-2.13-.36-2.55-1.08l-1.56 7.32-4.53 1.08 5.01-23.61zm2.7 13.68c.96 0 1.75-.45 2.37-1.35.64-.9 1.1-1.97 1.38-3.21.3-1.26.45-2.43.45-3.51 0-1.66-.5-2.49-1.5-2.49-.36 0-.73.13-1.11.39-.36.26-.68.62-.96 1.08l-1.77 8.4c.16.46.54.69 1.14.69zm12.473 2.61c-.96 0-1.77-.18-2.43-.54-.66-.38-1.15-.86-1.47-1.44-.32-.6-.48-1.22-.48-1.86 0-.66.16-1.23.48-1.71.3-.5.67-.86 1.11-1.08.78-1.4 1.46-2.81 2.04-4.23.58-1.44 1.13-2.99 1.65-4.65l4.44-.6c.1 2.56.27 5.33.51 8.31.1 1.2.15 2.07.15 2.61 0 .46-.04.84-.12 1.14.94-.54 1.66-1.04 2.16-1.5h1.26c-1.28 1.48-2.81 2.73-4.59 3.75-.58.62-1.3 1.08-2.16 1.38-.84.28-1.69.42-2.55.42zm-.96-2.37c.74 0 1.36-.22 1.86-.66.5-.44.75-1.15.75-2.13 0-.6-.06-1.44-.18-2.52-.2-2.28-.33-3.81-.39-4.59-.48 1.58-1.29 3.47-2.43 5.67.46.24.69.59.69 1.05 0 .38-.13.72-.39 1.02-.24.3-.55.45-.93.45-.42 0-.69-.13-.81-.39 0 .72.14 1.25.42 1.59.3.34.77.51 1.41.51zm11.965 2.37c-.96 0-1.74-.3-2.34-.9-.58-.6-.87-1.5-.87-2.7 0-.5.08-1.15.24-1.95l2.04-9.63h4.32l-2.16 10.2c-.06.3-.09.58-.09.84 0 .82.3 1.23.9 1.23.56 0 1.04-.23 1.44-.69.4-.48.72-1.13.96-1.95l2.04-9.63h4.32l-2.16 10.2c-.08.3-.12.62-.12.96 0 .4.09.69.27.87.2.16.52.24.96.24.56 0 1.04-.24 1.44-.72.42-.48.75-1.12.99-1.92h1.26c-.74 2.16-1.66 3.63-2.76 4.41-1.08.76-2.17 1.14-3.27 1.14-.86 0-1.55-.24-2.07-.72-.5-.48-.8-1.19-.9-2.13-.68 1.1-1.4 1.85-2.16 2.25-.74.4-1.5.6-2.28.6zm29.907 0c-1.06 0-1.83-.32-2.31-.96-.48-.64-.72-1.45-.72-2.43 0-.42.05-.89.15-1.41.1-.54.2-1.06.3-1.56.12-.5.2-.82.24-.96.16-.7.31-1.39.45-2.07.14-.68.21-1.23.21-1.65 0-1.02-.36-1.53-1.08-1.53-.52 0-.98.26-1.38.78-.4.5-.72 1.16-.96 1.98l-2.04 9.63h-4.32l2.19-10.35c.06-.24.09-.49.09-.75 0-.88-.3-1.32-.9-1.32-.56 0-1.05.26-1.47.78-.4.5-.72 1.17-.96 2.01l-2.04 9.63h-4.32l3.18-15h4.32l-.33 1.56c1.02-1.14 2.24-1.71 3.66-1.71 1.76 0 2.79.86 3.09 2.58 1.1-1.7 2.49-2.55 4.17-2.55 1.02 0 1.83.28 2.43.84.6.56.9 1.41.9 2.55 0 .58-.07 1.23-.21 1.95-.14.7-.34 1.56-.6 2.58-.16.62-.31 1.23-.45 1.83-.12.58-.18 1.04-.18 1.38 0 .4.09.71.27.93.18.22.49.33.93.33.48 0 .81-.06.99-.18-.12 1.02-.49 1.79-1.11 2.31-.6.52-1.33.78-2.19.78z" fill="#292F36"/></svg>