<svg width="47" height="44" fill="none" xmlns="http://www.w3.org/2000/svg"><path d="M.807 10c0-5.523 4.477-10 10-10h25.27c5.522 0 10 4.477 10 10v23.251c0 5.523-4.478 10-10 10h-25.27c-5.523 0-10-4.477-10-10V10z" fill="#F68DFF"/><path d="M26.797 10.019a1.008 1.008 0 01.707.53.962.962 0 01.103.438v3.297l-8.18 1.969-.009.002c-.286.07-.47.295-.47.572v8.045a1.793 1.793 0 01-.352 1.054 1.847 1.847 0 01-.912.657l-.844.3-.015.006a2.145 2.145 0 01-1.927-.286 2.119 2.119 0 01-.664-.758 2.076 2.076 0 01-.234-.973c0-.832.498-1.533 1.267-1.785l2.01-.683.005-.002a.596.596 0 00.429-.563v-8.575a1.21 1.21 0 01.254-.753c.167-.217.403-.373.67-.443l7.705-2.033c.15-.04.306-.046.457-.016z" fill="#C038CC"/><path d="M32.25 16.019a1.006 1.006 0 01.707.53.962.962 0 01.103.438v3.297l-8.18 1.969-.009.002c-.286.07-.47.295-.47.572v8.045a1.793 1.793 0 01-.352 1.054 1.847 1.847 0 01-.912.657l-.844.3-.014.006a2.144 2.144 0 01-1.927-.286 2.118 2.118 0 01-.665-.758 2.076 2.076 0 01-.234-.973c0-.832.498-1.533 1.267-1.785l2.01-.683.005-.002a.596.596 0 00.43-.563v-8.575a1.21 1.21 0 01.253-.753 1.25 1.25 0 01.67-.443l7.705-2.033c.15-.04.306-.046.458-.016z" fill="#C038CC"/></svg>