<svg width="46" height="44" fill="none" xmlns="http://www.w3.org/2000/svg"><path d="M.333 10c0-5.523 4.477-10 10-10h25.27c5.523 0 10 4.477 10 10v23.251c0 5.523-4.477 10-10 10h-25.27c-5.523 0-10-4.477-10-10V10z" fill="#AEEA7F"/><path d="M15.852 21.388h3.965v5.181c-.643.21-1.249.356-1.819.438-.565.086-1.144.13-1.736.13-1.508 0-2.662-.442-3.459-1.326-.793-.89-1.19-2.163-1.19-3.822 0-1.613.46-2.87 1.381-3.773.925-.902 2.206-1.354 3.842-1.354a7.41 7.41 0 012.967.616l-.704 1.695a5.029 5.029 0 00-2.276-.547c-.917 0-1.65.308-2.202.923-.551.615-.827 1.442-.827 2.481 0 1.085.221 1.914.663 2.489.447.57 1.094.854 1.942.854.442 0 .89-.046 1.346-.137v-2.085h-1.893v-1.763zM22.202 27v-9.994h2.12V27h-2.12zm6.72 0h-2.085v-9.994h5.729v1.736h-3.644v2.577h3.39v1.73h-3.39V27z" fill="#577E39"/></svg>