<svg width="46" height="44" fill="none" xmlns="http://www.w3.org/2000/svg"><path d="M0 10C0 4.477 4.477 0 10 0h25.27c5.522 0 10 4.477 10 10v23.251c0 5.523-4.478 10-10 10H10c-5.523 0-10-4.477-10-10V10z" fill="#FFD772"/><path d="M30 14H15a3 3 0 00-3 3v9a3 3 0 003 3h15a3 3 0 003-3v-9a3 3 0 00-3-3z" fill="#C59419"/><path d="M19.92 22.188l-2.59 3.18A1 1 0 0018.104 27H30a1 1 0 001-1v-2.614a1 1 0 00-.259-.672l-2.575-2.845a1 1 0 00-1.521.044l-2.67 3.317a1 1 0 01-1.52.044l-1.018-1.125a1 1 0 00-1.517.04zM18 20a2 2 0 100-4 2 2 0 000 4z" fill="#FFD772"/></svg>