<svg width="44" height="44" fill="none" xmlns="http://www.w3.org/2000/svg"><path d="M.62 10.62c0-5.522 4.478-10 10-10h23.252c5.523 0 10 4.478 10 10v23.252c0 5.523-4.477 10-10 10H10.621c-5.523 0-10-4.477-10-10V10.621z" fill="#470137"/><path d="M22.34 30h-3.457l-3.32-5.4-3.32 5.4H9l4.736-7.363-4.433-6.914h3.34l3.076 5.136 3.017-5.136h3.262l-4.482 7.08L22.34 30zm5.02.195c-1.283 0-2.292-.498-3.028-1.494-.73-.996-1.094-2.376-1.094-4.14 0-1.79.371-3.184 1.114-4.18.748-1.003 1.777-1.504 3.085-1.504 1.374 0 2.422.534 3.145 1.602h.098a12.17 12.17 0 01-.225-2.178v-3.496h2.988V30h-2.285l-.576-1.416h-.127c-.677 1.074-1.709 1.611-3.096 1.611zm1.044-2.373c.762 0 1.319-.221 1.67-.664.358-.443.554-1.195.586-2.256v-.322c0-1.172-.182-2.012-.547-2.52-.358-.507-.944-.761-1.758-.761-.664 0-1.181.283-1.552.85-.365.56-.547 1.376-.547 2.45 0 1.075.185 1.882.556 2.422.372.534.902.801 1.592.801z" fill="#FF61F6"/></svg>