<svg width="44" height="44" fill="none" xmlns="http://www.w3.org/2000/svg"><path d="M.62 10.62c0-5.522 4.478-10 10-10h23.252c5.523 0 10 4.478 10 10v23.252c0 5.523-4.477 10-10 10H10.621c-5.523 0-10-4.477-10-10V10.621z" fill="#001E36"/><path d="M14.178 21.336h1.146c1.07 0 1.871-.21 2.403-.629.532-.427.797-1.044.797-1.853 0-.816-.224-1.419-.673-1.808-.442-.39-1.138-.584-2.09-.584h-1.583v4.874zm7.862-2.605c0 1.766-.555 3.118-1.663 4.054-1.1.936-2.669 1.404-4.705 1.404h-1.494v5.84h-3.481v-16.42h5.244c1.992 0 3.504.43 4.537 1.292 1.041.853 1.562 2.13 1.562 3.83zM33.63 26.3c0 1.288-.45 2.268-1.348 2.942-.891.674-2.228 1.01-4.01 1.01-.913 0-1.692-.063-2.335-.19a8.6 8.6 0 01-1.809-.54v-2.83c.637.3 1.352.551 2.145.753.802.203 1.505.303 2.112.303 1.243 0 1.864-.359 1.864-1.078 0-.27-.082-.486-.247-.651-.165-.172-.45-.363-.854-.573a19.93 19.93 0 00-1.617-.752c-.966-.404-1.677-.779-2.133-1.123-.45-.345-.78-.738-.989-1.18-.202-.449-.303-.999-.303-1.65 0-1.116.43-1.977 1.291-2.583.869-.614 2.097-.921 3.684-.921 1.512 0 2.984.33 4.414.988l-1.034 2.47a19.01 19.01 0 00-1.763-.662 5.536 5.536 0 00-1.673-.258c-1.01 0-1.516.273-1.516.82 0 .307.16.573.483.797.33.225 1.044.558 2.145 1 .98.396 1.7.767 2.156 1.111.457.345.794.742 1.01 1.19.218.45.326.985.326 1.607z" fill="#30A8FF"/></svg>